<svg xmlns="http://www.w3.org/2000/svg" version="1.1" xmlns:xlink="http://www.w3.org/1999/xlink" xmlns:svgjs="http://svgjs.dev/svgjs" width="1500" height="1500" viewBox="0 0 1500 1500"><rect width="1500" height="1500" fill="#000000"></rect><g transform="matrix(0.6666666666666666,0,0,0.6666666666666666,249.39393939393938,620.0824258606317)"><svg viewBox="0 0 396 102" data-background-color="#2f2a29" preserveAspectRatio="xMidYMid meet" height="386" width="1500" xmlns="http://www.w3.org/2000/svg" xmlns:xlink="http://www.w3.org/1999/xlink"><g id="tight-bounds" transform="matrix(1,0,0,1,0.2400000000000091,0.49582601897242284)"><svg viewBox="0 0 395.52 101.00834796205518" height="101.00834796205518" width="395.52"><g><svg viewBox="0 0 541.4638319574278 138.27964994747077" height="101.00834796205518" width="395.52"><g transform="matrix(1,0,0,1,145.94383195742785,39.04363577133196)"><svg viewBox="0 0 395.52 60.19237840480686" height="60.19237840480686" width="395.52"><g id="textblocktransform"><svg viewBox="0 0 395.52 60.19237840480686" height="60.19237840480686" width="395.52" id="textblock"><g><svg viewBox="0 0 395.52 32.46489270386266" height="32.46489270386266" width="395.52"><g transform="matrix(1,0,0,1,0,0)"><svg width="395.52" viewBox="2.2 -36.74 455.03000000000003 37.35" height="32.46489270386266" data-palette-color="#e84613"><path d="M13.96 0.61L13.96 0.61Q10.33 0.61 7.35-0.74 4.37-2.1 2.2-4.42L2.2-4.42 4.47-7.1Q6.27-5.13 8.79-4.03 11.3-2.93 14.01-2.93L14.01-2.93Q17.46-2.93 19.38-4.49 21.31-6.05 21.31-8.59L21.31-8.59Q21.31-10.4 20.56-11.49 19.8-12.57 18.51-13.29 17.21-14.01 15.6-14.72L15.6-14.72 10.72-16.89Q9.16-17.58 7.57-18.65 5.98-19.73 4.92-21.41 3.86-23.1 3.86-25.56L3.86-25.56Q3.86-28.15 5.22-30.15 6.59-32.15 8.97-33.31 11.35-34.47 14.36-34.47L14.36-34.47Q17.46-34.47 20-33.3 22.53-32.13 24.27-30.4L24.27-30.4 22.05-27.71Q20.51-29.17 18.55-30.04 16.6-30.91 14.36-30.91L14.36-30.91Q11.47-30.91 9.7-29.52 7.93-28.13 7.93-25.81L7.93-25.81Q7.93-24.15 8.79-23.07 9.64-22 10.94-21.3 12.23-20.61 13.55-20.04L13.55-20.04 18.38-17.97Q20.36-17.14 21.95-15.99 23.54-14.84 24.46-13.15 25.39-11.45 25.39-8.91L25.39-8.91Q25.39-6.25 24-4.09 22.61-1.93 20.06-0.66 17.5 0.61 13.96 0.61ZM41.31 0.61L41.31 0.61Q38.28 0.61 35.65-0.93 33.03-2.47 31.43-5.38 29.83-8.3 29.83-12.45L29.83-12.45Q29.83-16.63 31.43-19.57 33.03-22.51 35.65-24.06 38.28-25.61 41.31-25.61L41.31-25.61Q44.38-25.61 47.02-24.06 49.66-22.51 51.25-19.57 52.85-16.63 52.85-12.45L52.85-12.45Q52.85-8.3 51.25-5.38 49.66-2.47 47.02-0.93 44.38 0.61 41.31 0.61ZM41.31-2.66L41.31-2.66Q44.65-2.66 46.73-5.36 48.8-8.06 48.8-12.45L48.8-12.45Q48.8-16.87 46.73-19.59 44.65-22.31 41.31-22.31L41.31-22.31Q39.13-22.31 37.45-21.07 35.76-19.82 34.82-17.61 33.88-15.41 33.88-12.45L33.88-12.45Q33.88-8.06 35.96-5.36 38.03-2.66 41.31-2.66ZM63.52 0L59.57 0 59.57-36.74 63.52-36.74 63.52-26.64 63.37-21.44Q65.18-23.17 67.18-24.39 69.18-25.61 71.77-25.61L71.77-25.61Q75.68-25.61 77.51-23.13 79.34-20.65 79.34-15.87L79.34-15.87 79.34 0 75.43 0 75.43-15.36Q75.43-18.92 74.29-20.56 73.14-22.19 70.53-22.19L70.53-22.19Q68.6-22.19 67.04-21.17 65.47-20.14 63.52-18.19L63.52-18.19 63.52 0ZM91.45 0L87.49 0 87.49-24.98 90.79-24.98 91.15-20.46 91.25-20.46Q92.57-22.8 94.4-24.21 96.23-25.61 98.36-25.61L98.36-25.61Q99.97-25.61 100.99-25.1L100.99-25.1 100.11-21.73Q99.58-21.9 99.1-21.97 98.63-22.05 97.84-22.05L97.84-22.05Q96.26-22.05 94.5-20.74 92.74-19.43 91.45-16.16L91.45-16.16 91.45 0ZM110.93 0.61L110.93 0.61Q107.8 0.61 105.7-1.21 103.6-3.03 103.6-6.42L103.6-6.42Q103.6-10.52 107.33-12.72 111.05-14.92 119.08-15.82L119.08-15.82Q119.08-17.48 118.63-18.97 118.18-20.46 117.04-21.41 115.91-22.36 113.81-22.36L113.81-22.36Q111.59-22.36 109.65-21.51 107.7-20.65 106.24-19.73L106.24-19.73 104.7-22.36Q106.36-23.51 108.89-24.56 111.42-25.61 114.44-25.61L114.44-25.61Q119.01-25.61 121.02-22.8 123.04-20 123.04-15.41L123.04-15.41 123.04 0 119.74 0 119.42-3.03 119.28-3.03Q117.47-1.54 115.36-0.46 113.25 0.61 110.93 0.61ZM112-2.56L112-2.56Q113.88-2.56 115.53-3.44 117.18-4.32 119.08-5.96L119.08-5.96 119.08-13.18Q114.76-12.65 112.22-11.77 109.68-10.89 108.58-9.64 107.49-8.4 107.49-6.74L107.49-6.74Q107.49-4.52 108.8-3.54 110.12-2.56 112-2.56ZM141.88 0.61L141.88 0.61Q140.15 0.61 138.27-0.23 136.39-1.07 134.73-2.56L134.73-2.56 134.56-2.56 134.22 0 131.02 0 131.02-36.74 134.97-36.74 134.97-26.64 134.83-22.05Q136.61-23.56 138.65-24.58 140.69-25.61 142.81-25.61L142.81-25.61Q147.69-25.61 150.23-22.14 152.77-18.68 152.77-12.87L152.77-12.87Q152.77-8.62 151.26-5.6 149.74-2.59 147.27-0.99 144.79 0.61 141.88 0.61ZM141.27-2.71L141.27-2.71Q144.47-2.71 146.58-5.43 148.69-8.15 148.69-12.82L148.69-12.82Q148.69-17.04 147.11-19.68 145.52-22.31 141.88-22.31L141.88-22.31Q140.25-22.31 138.55-21.4 136.85-20.48 134.97-18.75L134.97-18.75 134.97-5.4Q136.68-3.93 138.34-3.32 140-2.71 141.27-2.71ZM184.38 0L179.62 0 172.47-33.84 176.64-33.84 180.21-15.19Q180.7-12.45 181.22-9.74 181.75-7.03 182.21-4.27L182.21-4.27 182.4-4.27Q182.99-7.03 183.61-9.74 184.24-12.45 184.85-15.19L184.85-15.19 189.73-33.84 193.39-33.84 198.08-15.19Q198.74-12.48 199.37-9.75 200.01-7.03 200.62-4.27L200.62-4.27 200.81-4.27Q201.33-7.03 201.8-9.75 202.28-12.48 202.77-15.19L202.77-15.19 206.53-33.84 210.41-33.84 203.18 0 198.4 0 193.2-20.75Q192.76-22.78 192.34-24.65 191.93-26.51 191.54-28.49L191.54-28.49 191.34-28.49Q190.95-26.51 190.5-24.65 190.05-22.78 189.63-20.75L189.63-20.75 184.38 0ZM226.01 0.61L226.01 0.61Q222.71 0.61 220.01-0.95 217.31-2.51 215.71-5.44 214.12-8.37 214.12-12.45L214.12-12.45Q214.12-16.53 215.71-19.48 217.31-22.44 219.88-24.02 222.44-25.61 225.3-25.61L225.3-25.61Q230.01-25.61 232.6-22.46 235.19-19.31 235.19-13.89L235.19-13.89Q235.19-12.52 235.04-11.57L235.04-11.57 218.02-11.57Q218.22-7.5 220.51-5 222.81-2.51 226.47-2.51L226.47-2.51Q228.35-2.51 229.91-3.02 231.47-3.52 232.82-4.42L232.82-4.42 234.21-1.95Q232.57-0.83 230.6-0.11 228.62 0.61 226.01 0.61ZM217.97-14.43L217.97-14.43 231.69-14.43Q231.69-18.36 230.03-20.41 228.37-22.46 225.35-22.46L225.35-22.46Q222.64-22.46 220.5-20.36 218.36-18.26 217.97-14.43ZM252.27 0.61L252.27 0.61Q250.54 0.61 248.66-0.23 246.78-1.07 245.12-2.56L245.12-2.56 244.95-2.56 244.61 0 241.41 0 241.41-36.74 245.36-36.74 245.36-26.64 245.22-22.05Q247-23.56 249.04-24.58 251.08-25.61 253.2-25.61L253.2-25.61Q258.08-25.61 260.62-22.14 263.16-18.68 263.16-12.87L263.16-12.87Q263.16-8.62 261.65-5.6 260.13-2.59 257.66-0.99 255.18 0.61 252.27 0.61ZM251.66-2.71L251.66-2.71Q254.86-2.71 256.97-5.43 259.08-8.15 259.08-12.82L259.08-12.82Q259.08-17.04 257.5-19.68 255.91-22.31 252.27-22.31L252.27-22.31Q250.64-22.31 248.94-21.4 247.24-20.48 245.36-18.75L245.36-18.75 245.36-5.4Q247.07-3.93 248.73-3.32 250.39-2.71 251.66-2.71ZM295.65 0.61L295.65 0.61Q292.01 0.61 289.04-0.74 286.06-2.1 283.88-4.42L283.88-4.42 286.15-7.1Q287.96-5.13 290.48-4.03 292.99-2.93 295.7-2.93L295.7-2.93Q299.14-2.93 301.07-4.49 303-6.05 303-8.59L303-8.59Q303-10.4 302.24-11.49 301.49-12.57 300.19-13.29 298.9-14.01 297.29-14.72L297.29-14.72 292.4-16.89Q290.84-17.58 289.25-18.65 287.67-19.73 286.61-21.41 285.54-23.1 285.54-25.56L285.54-25.56Q285.54-28.15 286.91-30.15 288.28-32.15 290.66-33.31 293.04-34.47 296.04-34.47L296.04-34.47Q299.14-34.47 301.68-33.3 304.22-32.13 305.95-30.4L305.95-30.4 303.73-27.71Q302.19-29.17 300.24-30.04 298.29-30.91 296.04-30.91L296.04-30.91Q293.16-30.91 291.39-29.52 289.62-28.13 289.62-25.81L289.62-25.81Q289.62-24.15 290.48-23.07 291.33-22 292.62-21.3 293.92-20.61 295.24-20.04L295.24-20.04 300.07-17.97Q302.05-17.14 303.63-15.99 305.22-14.84 306.15-13.15 307.08-11.45 307.08-8.91L307.08-8.91Q307.08-6.25 305.69-4.09 304.29-1.93 301.74-0.66 299.19 0.61 295.65 0.61ZM323.41 0.61L323.41 0.61Q320.11 0.61 317.41-0.95 314.72-2.51 313.12-5.44 311.52-8.37 311.52-12.45L311.52-12.45Q311.52-16.53 313.12-19.48 314.72-22.44 317.28-24.02 319.84-25.61 322.7-25.61L322.7-25.61Q327.41-25.61 330-22.46 332.59-19.31 332.59-13.89L332.59-13.89Q332.59-12.52 332.44-11.57L332.44-11.57 315.42-11.57Q315.62-7.5 317.91-5 320.21-2.51 323.87-2.51L323.87-2.51Q325.75-2.51 327.31-3.02 328.88-3.52 330.22-4.42L330.22-4.42 331.61-1.95Q329.97-0.83 328-0.11 326.02 0.61 323.41 0.61ZM315.38-14.43L315.38-14.43 329.1-14.43Q329.1-18.36 327.44-20.41 325.78-22.46 322.75-22.46L322.75-22.46Q320.04-22.46 317.9-20.36 315.77-18.26 315.38-14.43ZM342.77 0L338.81 0 338.81-24.98 342.11-24.98 342.47-20.46 342.57-20.46Q343.89-22.8 345.72-24.21 347.55-25.61 349.67-25.61L349.67-25.61Q351.29-25.61 352.31-25.1L352.31-25.1 351.43-21.73Q350.9-21.9 350.42-21.97 349.94-22.05 349.16-22.05L349.16-22.05Q347.57-22.05 345.82-20.74 344.06-19.43 342.77-16.16L342.77-16.16 342.77 0ZM366.47 0L361.88 0 352.82-24.98 356.9-24.98 361.78-10.6Q362.34-8.74 362.93-6.88 363.51-5.03 364.1-3.22L364.1-3.22 364.32-3.22Q364.88-5.03 365.49-6.88 366.1-8.74 366.64-10.6L366.64-10.6 371.52-24.98 375.38-24.98 366.47 0ZM384.24 0L380.28 0 380.28-24.98 384.24-24.98 384.24 0ZM382.34-30.25L382.34-30.25Q381.14-30.25 380.41-30.99 379.67-31.74 379.67-32.98L379.67-32.98Q379.67-34.13 380.41-34.86 381.14-35.6 382.34-35.6L382.34-35.6Q383.53-35.6 384.26-34.86 385-34.13 385-32.98L385-32.98Q385-31.74 384.26-30.99 383.53-30.25 382.34-30.25ZM402.65 0.61L402.65 0.61Q399.35 0.61 396.71-0.93 394.08-2.47 392.54-5.38 391-8.3 391-12.45L391-12.45Q391-16.63 392.66-19.57 394.32-22.51 397.04-24.06 399.76-25.61 402.94-25.61L402.94-25.61Q405.43-25.61 407.19-24.76 408.94-23.9 410.26-22.66L410.26-22.66 408.26-20.19Q407.21-21.17 405.93-21.74 404.65-22.31 403.11-22.31L403.11-22.31Q400.79-22.31 398.97-21.07 397.15-19.82 396.1-17.61 395.05-15.41 395.05-12.45L395.05-12.45Q395.05-8.06 397.25-5.36 399.45-2.66 403.01-2.66L403.01-2.66Q404.79-2.66 406.31-3.34 407.82-4.03 408.97-5.08L408.97-5.08 410.73-2.56Q407.28 0.61 402.65 0.61ZM426.32 0.61L426.32 0.61Q423.03 0.61 420.33-0.95 417.63-2.51 416.03-5.44 414.44-8.37 414.44-12.45L414.44-12.45Q414.44-16.53 416.03-19.48 417.63-22.44 420.2-24.02 422.76-25.61 425.62-25.61L425.62-25.61Q430.33-25.61 432.92-22.46 435.5-19.31 435.5-13.89L435.5-13.89Q435.5-12.52 435.36-11.57L435.36-11.57 418.34-11.57Q418.54-7.5 420.83-5 423.13-2.51 426.79-2.51L426.79-2.51Q428.67-2.51 430.23-3.02 431.79-3.52 433.14-4.42L433.14-4.42 434.53-1.95Q432.89-0.83 430.91-0.11 428.94 0.61 426.32 0.61ZM418.29-14.43L418.29-14.43 432.01-14.43Q432.01-18.36 430.35-20.41 428.69-22.46 425.67-22.46L425.67-22.46Q422.96-22.46 420.82-20.36 418.68-18.26 418.29-14.43ZM448.22 0.61L448.22 0.61Q445.44 0.61 443.05-0.33 440.65-1.27 438.94-2.93L438.94-2.93 440.8-5.25Q442.39-3.93 444.18-3.2 445.98-2.47 448.37-2.47L448.37-2.47Q450.88-2.47 452.15-3.67 453.42-4.88 453.42-6.54L453.42-6.54Q453.42-7.86 452.59-8.73 451.76-9.59 450.46-10.21 449.15-10.82 447.71-11.33L447.71-11.33Q445.85-12.01 444.17-12.92 442.48-13.82 441.41-15.19 440.34-16.55 440.34-18.6L440.34-18.6Q440.34-21.53 442.56-23.57 444.78-25.61 448.83-25.61L448.83-25.61Q451.15-25.61 453.12-24.82 455.08-24.02 456.52-22.83L456.52-22.83 454.72-20.51Q453.4-21.46 451.99-21.98 450.59-22.51 448.88-22.51L448.88-22.51Q446.41-22.51 445.28-21.37 444.14-20.24 444.14-18.8L444.14-18.8Q444.14-17.02 445.66-16.11 447.17-15.21 449.44-14.36L449.44-14.36Q451.42-13.67 453.2-12.78 454.98-11.89 456.11-10.47 457.23-9.06 457.23-6.74L457.23-6.74Q457.23-3.71 454.91-1.55 452.59 0.61 448.22 0.61Z" opacity="1" transform="matrix(1,0,0,1,0,0)" fill="#ffffff" class="wordmark-text-0" data-fill-palette-color="primary" id="text-0"></path></svg></g></svg></g><g transform="matrix(1,0,0,1,0,40.12907471381974)"><svg viewBox="0 0 176.3489566265494 20.063303690987123" height="20.063303690987123" width="176.3489566265494"><g transform="matrix(1,0,0,1,0,0)"><svg width="176.3489566265494" viewBox="2.27 -41.19 368.21000000000004 41.9" height="20.063303690987123" data-palette-color="#e84613"><path d="M19.02 0L10.99-26.22 8.25 0 2.27 0 8.25-35.16 17.11-35.16 25.34-8.33 33.67-35.16 42.53-35.16 47.51 0 37.65 0 34.74-25.54 27.88 0 19.02 0ZM81.15-28.2L81.15 0 72.9 0 72.9-3.37Q71.43-1.37 69.37-0.4 67.31 0.56 64.84 0.56L64.84 0.56Q61.62 0.56 59.08-0.59 56.54-1.73 54.78-3.72 53.02-5.71 52.1-8.4 51.17-11.08 51.17-14.16L51.17-14.16Q51.17-17.24 52.1-19.92 53.02-22.61 54.78-24.6 56.54-26.59 59.08-27.73 61.62-28.88 64.84-28.88L64.84-28.88Q66.48-28.88 67.95-28.39 69.43-27.91 70.66-27.01 71.9-26.12 72.84-24.87 73.78-23.61 74.31-22.07L74.31-22.07 77.98-28.2 81.15-28.2ZM72.85-14.16L72.85-14.16Q72.85-15.26 72.74-16.48 72.63-17.7 72.36-18.9 72.09-20.09 71.62-21.18 71.14-22.27 70.4-23.11 69.65-23.95 68.6-24.44 67.55-24.93 66.16-24.93L66.16-24.93Q64.77-24.93 63.74-24.43 62.72-23.93 61.98-23.08 61.25-22.24 60.78-21.14 60.3-20.04 60.03-18.85 59.76-17.65 59.65-16.44 59.54-15.23 59.54-14.16L59.54-14.16Q59.54-13.09 59.65-11.87 59.76-10.64 60.03-9.45 60.3-8.25 60.78-7.15 61.25-6.05 61.98-5.21 62.72-4.37 63.74-3.87 64.77-3.37 66.16-3.37L66.16-3.37Q67.43-3.37 68.42-3.89 69.41-4.42 70.15-5.3 70.9-6.18 71.41-7.3 71.92-8.42 72.24-9.62 72.56-10.82 72.7-12 72.85-13.18 72.85-14.16ZM96.28-9.47L96.28 0 88.03 0 88.03-38.57 96.28-38.57 96.28-13.26Q98.31-14.72 100.28-16.48 102.24-18.24 104.02-20.18 105.81-22.12 107.33-24.15 108.86-26.17 110-28.2L110-28.2 115.62-28.2Q113.91-25.32 111.57-22.45 109.22-19.58 106.46-16.97L106.46-16.97 115.72 0 106.61 0 100.04-11.77Q98.21-10.52 96.28-9.47L96.28-9.47ZM125.63-13.38L125.63-13.38Q127.14-13.04 128.65-12.84 130.17-12.65 131.71-12.65L131.71-12.65Q133.32-12.65 134.7-12.95 136.08-13.26 137.09-13.98 138.1-14.7 138.69-15.89 139.27-17.09 139.27-18.87L139.27-18.87Q139.27-20.31 138.88-21.51 138.49-22.71 137.72-23.56 136.96-24.41 135.83-24.89 134.71-25.37 133.22-25.37L133.22-25.37Q131.83-25.37 130.72-24.85 129.61-24.34 128.76-23.47 127.92-22.61 127.32-21.46 126.73-20.31 126.34-19.07 125.94-17.82 125.77-16.55 125.6-15.28 125.6-14.16L125.6-14.16Q125.6-13.96 125.6-13.77 125.6-13.57 125.63-13.38ZM145.96-18.95L145.96-18.95Q145.96-17.21 145.4-15.86 144.84-14.5 143.88-13.48 142.91-12.45 141.64-11.74 140.37-11.04 138.93-10.58 137.49-10.13 135.97-9.94 134.44-9.74 133-9.74L133-9.74Q131.17-9.74 129.39-10 127.6-10.25 125.87-10.82L125.87-10.82Q126.14-9.2 126.73-7.75 127.31-6.3 128.29-5.21 129.26-4.13 130.69-3.49 132.12-2.86 134.07-2.86L134.07-2.86Q135.37-2.86 136.54-3.25 137.71-3.64 138.69-4.35 139.67-5.05 140.41-6.03 141.15-7.01 141.62-8.2L141.62-8.2 145.18-6.88Q144.38-4.96 142.97-3.55 141.57-2.15 139.8-1.23 138.03-0.32 136.04 0.12 134.05 0.56 132.1 0.56L132.1 0.56Q128.87 0.56 126.14-0.52 123.41-1.61 121.43-3.56 119.45-5.52 118.33-8.23 117.2-10.94 117.2-14.16L117.2-14.16Q117.2-17.38 118.33-20.09 119.45-22.8 121.43-24.76 123.41-26.71 126.14-27.8 128.87-28.88 132.1-28.88L132.1-28.88Q133.66-28.88 135.3-28.66 136.93-28.44 138.47-27.97 140.01-27.49 141.37-26.73 142.74-25.98 143.75-24.87 144.77-23.75 145.37-22.29 145.96-20.83 145.96-18.95ZM175.5-35.16L175.5 0 165.81 0 165.81-35.16 175.5-35.16ZM193.54-24.93L193.54 0 185.26 0 185.26-24.93 180.14-24.93 180.14-28.2 185.26-28.2 185.26-38.57 193.54-38.57 193.54-28.2 202.08-28.2 202.08-24.93 193.54-24.93ZM252.54-26.44L252.54-26.44 248.37-24.68Q247.88-26.27 247.06-27.59 246.24-28.91 245.11-29.85 243.97-30.79 242.53-31.31 241.09-31.84 239.38-31.84L239.38-31.84Q237.55-31.84 236.03-31.24 234.5-30.64 233.29-29.59 232.08-28.54 231.18-27.15 230.28-25.76 229.67-24.18 229.06-22.61 228.76-20.92 228.47-19.24 228.47-17.63L228.47-17.63Q228.47-15.06 229.07-12.52 229.67-9.99 230.97-7.96 232.28-5.93 234.36-4.68 236.43-3.42 239.38-3.42L239.38-3.42Q240.95-3.42 242.34-3.94 243.73-4.47 244.87-5.38 246-6.3 246.86-7.54 247.71-8.79 248.22-10.23L248.22-10.23 252.45-8.54Q251.52-6.23 249.91-4.48 248.3-2.73 246.23-1.59 244.17-0.44 241.81 0.13 239.46 0.71 237.06 0.71L237.06 0.71Q234.48 0.71 232.1 0.07 229.72-0.56 227.67-1.73 225.61-2.91 223.94-4.57 222.27-6.23 221.09-8.25 219.9-10.28 219.25-12.66 218.61-15.04 218.61-17.63L218.61-17.63Q218.61-20.21 219.25-22.6 219.9-24.98 221.09-27.01 222.27-29.05 223.94-30.71 225.61-32.37 227.67-33.54 229.72-34.72 232.1-35.35 234.48-35.99 237.06-35.99L237.06-35.99Q239.56-35.99 241.94-35.4 244.32-34.81 246.37-33.63 248.42-32.45 250.02-30.65 251.62-28.86 252.54-26.44ZM265.92-32.62L265.92 0 257.67 0 257.67-41.19 260.84-41.19 265.92-32.62ZM302.59-14.16L302.59-14.16Q302.59-11.96 302-10.03 301.42-8.11 300.38-6.47 299.34-4.83 297.88-3.53 296.41-2.22 294.66-1.32 292.92-0.42 290.93 0.07 288.94 0.56 286.84 0.56L286.84 0.56Q284.74 0.56 282.76 0.07 280.79-0.42 279.04-1.32 277.29-2.22 275.83-3.53 274.36-4.83 273.33-6.47 272.29-8.11 271.7-10.05 271.12-11.99 271.12-14.16L271.12-14.16Q271.12-16.33 271.7-18.27 272.29-20.21 273.33-21.85 274.36-23.49 275.83-24.79 277.29-26.1 279.04-27 280.79-27.91 282.76-28.39 284.74-28.88 286.84-28.88L286.84-28.88Q288.94-28.88 290.93-28.39 292.92-27.91 294.66-27 296.41-26.1 297.88-24.79 299.34-23.49 300.38-21.85 301.42-20.21 302-18.27 302.59-16.33 302.59-14.16ZM294.19-14.16L294.19-14.16Q294.19-15.33 294.05-16.64 293.92-17.94 293.6-19.2 293.29-20.46 292.74-21.62 292.19-22.78 291.38-23.65 290.58-24.51 289.45-25.04 288.33-25.56 286.84-25.56L286.84-25.56Q285.42-25.56 284.33-25.02 283.23-24.49 282.41-23.6 281.59-22.71 281.04-21.53 280.49-20.36 280.15-19.1 279.81-17.85 279.66-16.56 279.52-15.28 279.52-14.16L279.52-14.16Q279.52-13.04 279.66-11.76 279.81-10.47 280.15-9.2 280.49-7.93 281.04-6.77 281.59-5.62 282.41-4.72 283.23-3.83 284.33-3.3 285.42-2.76 286.84-2.76L286.84-2.76Q288.31-2.76 289.43-3.28 290.55-3.81 291.37-4.69 292.19-5.57 292.72-6.71 293.26-7.86 293.59-9.13 293.92-10.4 294.05-11.69 294.19-12.99 294.19-14.16ZM306.34-12.06L306.34-12.06Q306.34-13.99 306.67-16.06 307-18.14 307.63-20.21 308.25-22.29 309.13-24.32 310.01-26.34 311.11-28.2L311.11-28.2 317.14-28.2Q316.53-26.37 316.05-24.38 315.57-22.39 315.24-20.4 314.91-18.41 314.73-16.5 314.55-14.6 314.55-12.96L314.55-12.96Q314.55-12.01 314.63-10.93 314.72-9.84 314.94-8.75 315.16-7.67 315.56-6.67 315.96-5.66 316.6-4.9 317.23-4.13 318.15-3.67 319.06-3.22 320.31-3.22L320.31-3.22Q321.53-3.22 322.49-3.77 323.46-4.32 324.19-5.21 324.92-6.1 325.44-7.25 325.95-8.4 326.28-9.61 326.61-10.82 326.77-11.98 326.93-13.13 326.93-14.06L326.93-14.06 326.93-28.2 335.18-28.2 335.18 0 332 0 328.22-6.57Q327.51-4.93 326.5-3.6 325.49-2.27 324.19-1.32 322.9-0.37 321.32 0.15 319.75 0.66 317.92 0.66L317.92 0.66Q314.99 0.66 312.81-0.29 310.64-1.25 309.2-2.93 307.76-4.61 307.05-6.95 306.34-9.28 306.34-12.06ZM370.48-38.57L370.48 0 367.3 0 363.64-6.13Q363.1-4.59 362.16-3.34 361.22-2.1 359.99-1.21 358.76-0.32 357.28 0.17 355.8 0.66 354.17 0.66L354.17 0.66Q350.95 0.66 348.41-0.49 345.87-1.64 344.11-3.63 342.35-5.62 341.43-8.3 340.5-10.99 340.5-14.06L340.5-14.06Q340.5-17.14 341.43-19.82 342.35-22.51 344.11-24.49 345.87-26.46 348.41-27.61 350.95-28.76 354.17-28.76L354.17-28.76Q356.64-28.76 358.7-27.81 360.76-26.86 362.23-24.83L362.23-24.83 362.23-38.57 370.48-38.57ZM362.18-14.06L362.18-14.06Q362.18-15.04 362.03-16.21 361.88-17.38 361.57-18.58 361.25-19.78 360.74-20.9 360.22-22.02 359.48-22.9 358.73-23.78 357.75-24.3 356.76-24.83 355.49-24.83L355.49-24.83Q354.1-24.83 353.07-24.33 352.05-23.83 351.31-22.99 350.58-22.14 350.1-21.04 349.63-19.95 349.36-18.75 349.09-17.55 348.98-16.35 348.87-15.14 348.87-14.06L348.87-14.06Q348.87-12.99 348.98-11.78 349.09-10.57 349.36-9.38 349.63-8.18 350.1-7.07 350.58-5.96 351.31-5.11 352.05-4.27 353.07-3.77 354.1-3.27 355.49-3.27L355.49-3.27Q356.88-3.27 357.93-3.76 358.98-4.25 359.72-5.09 360.47-5.93 360.94-7.02 361.42-8.11 361.69-9.31 361.96-10.52 362.07-11.74 362.18-12.96 362.18-14.06Z" opacity="1" transform="matrix(1,0,0,1,0,0)" fill="#ffffff" class="slogan-text-1" data-fill-palette-color="secondary" id="text-1"></path></svg></g></svg></g></svg></g></svg></g><g><svg viewBox="0 0 138.27964994747077 138.27964994747077" height="138.27964994747077" width="138.27964994747077"><g><svg></svg></g><g id="icon-0"><svg viewBox="0 0 138.27964994747077 138.27964994747077" height="138.27964994747077" width="138.27964994747077"><g><rect width="125.73205208186695" height="125.73205208186695" x="6.27379893280191" y="6.27379893280191" fill="#ffffff" data-fill-palette-color="accent"></rect><rect width="125.73205208186695" height="125.73205208186695" x="12.547597865603823" y="-3.552713678800501e-15" fill="#ffffff" opacity="0.5" data-fill-palette-color="accent"></rect></g><g transform="matrix(1,0,0,1,17.92513980800547,18.423604175318438)"><svg viewBox="0 0 102.42937033145984 101.4324415968339" height="101.4324415968339" width="102.42937033145984"><g><svg xmlns="http://www.w3.org/2000/svg" xmlns:xlink="http://www.w3.org/1999/xlink" version="1.1" x="0" y="0" viewBox="4.062035021560107 4.509035021560164 91.85396497843989 90.95996497843983" enable-background="new 0 0 100 100" xml:space="preserve" height="101.4324415968339" width="102.42937033145984" class="icon-dxe-0" data-fill-palette-color="quaternary" id="dxe-0"><g fill="#2f2a29" data-fill-palette-color="quaternary"><path fill="none" d="M27.751 31.829V68.982A3.05 3.05 0 0 0 30.798 72.029H67.951A3.05 3.05 0 0 0 70.999 68.982V31.829A3.05 3.05 0 0 0 67.951 28.782H30.798A3.05 3.05 0 0 0 27.751 31.829M40.021 45.799A4.27 4.27 0 0 1 44.291 41.528H54.459A4.27 4.27 0 0 1 58.729 45.799V55.014A4.27 4.27 0 0 1 54.459 59.285H44.291A4.27 4.27 0 0 1 40.021 55.014z"></path><path d="M26.684 31.829V68.982A4.12 4.12 0 0 0 30.799 73.097H67.952A4.12 4.12 0 0 0 72.067 68.982V31.829A4.12 4.12 0 0 0 67.952 27.715H30.798A4.12 4.12 0 0 0 26.684 31.829M70.999 31.829V68.982A3.05 3.05 0 0 1 67.951 72.029H30.798A3.05 3.05 0 0 1 27.751 68.982V31.829A3.05 3.05 0 0 1 30.798 28.782H67.951A3.05 3.05 0 0 1 70.999 31.829" fill="#000000" data-fill-palette-color="quaternary"></path><path d="M44.291 59.284H54.459A4.27 4.27 0 0 0 58.729 55.013V45.798A4.27 4.27 0 0 0 54.459 41.527H44.291A4.27 4.27 0 0 0 40.021 45.798V55.013A4.27 4.27 0 0 0 44.291 59.284" fill="#000000" data-fill-palette-color="quaternary"></path><circle cx="35.146" cy="22.323" r="3.0" fill="#000000" data-fill-palette-color="quaternary"></circle><path d="M53.896 25.323A2.995 2.995 0 0 0 54.396 19.373V8.51H71.842A3.47 3.47 0 0 0 75.271 11.489 3.48 3.48 0 0 0 75.271 4.531 3.47 3.47 0 0 0 71.842 7.51H53.396V19.373A2.995 2.995 0 0 0 53.896 25.323" fill="#000000" data-fill-palette-color="quaternary"></path><path d="M44.479 75.489C42.823 75.489 41.479 76.833 41.479 78.489A2.996 2.996 0 0 0 43.979 81.439V91.49H42.054A3.47 3.47 0 0 0 38.625 88.511 3.48 3.48 0 0 0 38.625 95.469 3.47 3.47 0 0 0 42.054 92.49H44.979V81.439A2.995 2.995 0 0 0 44.479 75.489" fill="#000000" data-fill-palette-color="quaternary"></path><path d="M74.208 36.947C74.208 38.603 75.552 39.947 77.208 39.947A2.996 2.996 0 0 0 80.158 37.447H81.676A3.47 3.47 0 0 0 85.104 40.426 3.479 3.479 0 1 0 85.104 33.468 3.47 3.47 0 0 0 81.676 36.447H80.158A2.995 2.995 0 0 0 74.208 36.947" fill="#000000" data-fill-palette-color="quaternary"></path><path d="M24.542 64.697A2.996 2.996 0 0 0 18.592 64.197H16.47A3.47 3.47 0 0 0 13.041 61.218 3.479 3.479 0 1 0 13.041 68.176 3.47 3.47 0 0 0 16.47 65.197H18.592A2.994 2.994 0 0 0 21.542 67.697 3 3 0 0 0 24.542 64.697" fill="#000000" data-fill-palette-color="quaternary"></path><path d="M25.021 11.489A3.47 3.47 0 0 0 28.45 8.51H34.646V19.323H35.646V7.51H28.45A3.47 3.47 0 0 0 21.542 8.01 3.48 3.48 0 0 0 25.021 11.489" fill="#000000" data-fill-palette-color="quaternary"></path><path d="M43.979 11.439V19.374A2.995 2.995 0 0 0 44.479 25.324 2.995 2.995 0 0 0 44.979 19.374V11.439A3.47 3.47 0 0 0 47.958 8.01 3.48 3.48 0 0 0 41 8.01 3.47 3.47 0 0 0 43.979 11.439" fill="#000000" data-fill-palette-color="quaternary"></path><path d="M66.375 13.188A3.48 3.48 0 0 0 59.417 13.188 3.47 3.47 0 0 0 62.396 16.617V19.374A2.995 2.995 0 0 0 62.896 25.324 2.995 2.995 0 0 0 63.396 19.374V16.617A3.47 3.47 0 0 0 66.375 13.188" fill="#000000" data-fill-palette-color="quaternary"></path><path d="M91.938 31.144V45.78H80.158A2.996 2.996 0 0 0 77.208 43.28 3.001 3.001 0 0 0 77.208 49.28 2.995 2.995 0 0 0 80.158 46.78H92.937V31.144A3.47 3.47 0 0 0 95.916 27.715 3.48 3.48 0 0 0 88.958 27.715 3.47 3.47 0 0 0 91.938 31.144" fill="#000000" data-fill-palette-color="quaternary"></path><path d="M92.063 49.219A3.47 3.47 0 0 0 88.633 52.198H83.916V55.198H80.158A2.996 2.996 0 0 0 77.208 52.698 3.001 3.001 0 0 0 77.208 58.698 2.995 2.995 0 0 0 80.158 56.198H84.916V53.198H88.633A3.47 3.47 0 0 0 92.063 56.177 3.479 3.479 0 1 0 92.063 49.219" fill="#000000" data-fill-palette-color="quaternary"></path><path d="M54.396 88.561V81.44A2.995 2.995 0 0 0 53.896 75.49C52.24 75.49 50.896 76.834 50.896 78.49A2.996 2.996 0 0 0 53.396 81.44V88.561A3.47 3.47 0 0 0 50.417 91.991 3.48 3.48 0 0 0 57.375 91.991 3.47 3.47 0 0 0 54.396 88.561" fill="#000000" data-fill-palette-color="quaternary"></path><path d="M71.729 83.511A3.47 3.47 0 0 0 68.301 86.49H63.396V81.439A2.995 2.995 0 0 0 62.896 75.489C61.24 75.489 59.896 76.833 59.896 78.489A2.996 2.996 0 0 0 62.396 81.439V87.49H68.301A3.47 3.47 0 0 0 71.729 90.469 3.479 3.479 0 1 0 71.729 83.511" fill="#000000" data-fill-palette-color="quaternary"></path><path d="M91.396 68.344A3.47 3.47 0 0 0 87.967 71.323H83.875V64.197H80.158A2.996 2.996 0 0 0 77.208 61.697 3.001 3.001 0 0 0 77.208 67.697 2.995 2.995 0 0 0 80.158 65.197H82.875V72.323H87.967A3.47 3.47 0 0 0 91.396 75.302 3.48 3.48 0 0 0 91.396 68.344" fill="#000000" data-fill-palette-color="quaternary"></path><path d="M8.396 31.194A3.47 3.47 0 0 0 11.825 28.215H12.542V37.447H18.592A2.995 2.995 0 0 0 24.542 36.947 2.995 2.995 0 0 0 18.592 36.447H13.542V27.215H11.825A3.47 3.47 0 0 0 8.396 24.236 3.48 3.48 0 0 0 8.396 31.194" fill="#000000" data-fill-palette-color="quaternary"></path><path d="M7.063 42.606V45.989H18.571C18.562 46.086 18.542 46.18 18.542 46.28A3 3 0 1 0 21.542 43.28 2.99 2.99 0 0 0 18.845 44.989H8.063V42.606A3.47 3.47 0 0 0 7.563 35.698 3.47 3.47 0 0 0 7.063 42.606" fill="#000000" data-fill-palette-color="quaternary"></path><path d="M10.992 60.239H14.375V55.906H18.563A2.99 2.99 0 0 0 21.542 58.697 3 3 0 0 0 21.542 52.697 2.99 2.99 0 0 0 18.661 54.906H13.375V59.239H10.992A3.47 3.47 0 0 0 7.563 56.26 3.48 3.48 0 0 0 7.563 63.218 3.47 3.47 0 0 0 10.992 60.239" fill="#000000" data-fill-palette-color="quaternary"></path><path d="M35.646 81.439A2.996 2.996 0 0 0 38.146 78.489 3.001 3.001 0 0 0 32.146 78.489 2.995 2.995 0 0 0 34.646 81.439V84.468H27.971A3.47 3.47 0 0 0 24.542 81.489 3.48 3.48 0 0 0 24.542 88.447 3.47 3.47 0 0 0 27.971 85.468H35.646z" fill="#000000" data-fill-palette-color="quaternary"></path></g></svg></g></svg></g></svg></g></svg></g></svg></g><defs></defs></svg><rect width="395.52" height="101.00834796205518" fill="none" stroke="none" visibility="hidden"></rect></g></svg></g></svg>